<svg width="120" height="25" viewBox="0 0 120 25" fill="none" xmlns="http://www.w3.org/2000/svg">
<g clip-path="url(#clip0_6284_24205)">
<path d="M7.71625 6.59267L6.71875 10.2006L12.4282 6.57213L8.69411 20.2632L12.4865 20.2663L18.0028 0.0440063" fill="#3395FF"/>
<path d="M1.57066 14.5106L0 20.2663H7.77289L10.9535 8.55753L1.57066 14.5106ZM28.5709 9.44317C28.3809 10.1371 28.0148 10.6469 27.4689 10.9724C26.9242 11.2972 26.1598 11.4603 25.1731 11.4603H22.0381L23.1388 7.42729H26.2738C27.2593 7.42729 27.9363 7.58911 28.3036 7.91897C28.671 8.24883 28.7596 8.75295 28.5709 9.45002M31.8167 9.36288C32.2157 7.90652 32.051 6.78624 31.3214 6.00204C30.5931 5.22407 29.3151 4.83197 27.4911 4.83197H20.4946L16.283 20.2732H19.6821L21.3794 14.0494H23.6087C24.1091 14.0494 24.503 14.1303 24.7905 14.2859C25.0787 14.4477 25.2478 14.7278 25.2997 15.1323L25.9065 20.2732H29.5481L28.9579 15.4809C28.8375 14.4104 28.3391 13.7818 27.4632 13.5951C28.5798 13.2776 29.5152 12.7486 30.2689 12.0142C31.0173 11.2852 31.552 10.3715 31.8167 9.36911M40.0792 14.7465C39.7942 15.7921 39.3572 16.5825 38.7663 17.1364C38.1747 17.6903 37.4679 17.9642 36.6433 17.9642C35.8035 17.9642 35.2342 17.6965 34.9333 17.1551C34.6319 16.6136 34.6217 15.8294 34.9017 14.8025C35.1816 13.7755 35.6281 12.9727 36.2424 12.3939C36.8568 11.8151 37.575 11.5256 38.3996 11.5256C39.2229 11.5256 39.7866 11.8057 40.0716 12.3615C40.3629 12.9198 40.3692 13.7183 40.0842 14.7577L40.0792 14.7465ZM41.5688 9.28198L41.1432 10.8441C40.9595 10.284 40.6029 9.83589 40.076 9.49981C39.5478 9.16995 38.8942 9.00191 38.1146 9.00191C37.1582 9.00191 36.2399 9.24463 35.3596 9.73009C34.4792 10.2155 33.7066 10.9002 33.0479 11.7839C32.3892 12.6677 31.9079 13.6697 31.5976 14.7962C31.2936 15.929 31.2302 16.9186 31.4139 17.7774C31.6039 18.6425 32.0029 19.3023 32.6172 19.7628C33.2379 20.2296 34.0296 20.4599 34.9986 20.4599C35.7686 20.4637 36.5299 20.3001 37.2279 19.9807C37.918 19.6748 38.5319 19.2245 39.0266 18.6612L38.5832 20.2894H41.8702L44.8716 9.28758H41.5783L41.5688 9.28198ZM56.6832 9.28198H47.1244L46.4562 11.7341H52.0181L44.6651 17.9766L44.0369 20.2794H53.9042L54.5723 17.8272H48.6127L56.0784 11.4914M65.0971 14.7278C64.8013 15.8107 64.3624 16.6248 63.7829 17.1551C63.2034 17.6903 62.5017 17.9579 61.6777 17.9579C59.955 17.9579 59.3888 16.8812 59.9766 14.7278C60.2679 13.6573 60.7087 12.8526 61.2977 12.3105C61.8867 11.7665 62.6005 11.4952 63.4396 11.4952C64.263 11.4952 64.819 11.7646 65.1053 12.3074C65.3916 12.8488 65.389 13.6561 65.0971 14.7265M67.0211 9.69586C66.2643 9.23281 65.2985 9.00128 64.1205 9.00128C62.9279 9.00128 61.824 9.23156 60.8081 9.69212C59.7965 10.1498 58.9074 10.833 58.2115 11.6875C57.4958 12.5526 56.9809 13.567 56.6649 14.7247C56.3545 15.8779 56.3165 16.8906 56.5572 17.7575C56.7979 18.6226 57.3045 19.2886 58.0645 19.7491C58.8309 20.2134 59.8062 20.4443 61.0032 20.4443C62.1812 20.4443 63.2769 20.2116 64.2839 19.7485C65.2909 19.283 66.1522 18.622 66.8679 17.7507C67.5835 16.8831 68.0965 15.8711 68.4132 14.7135C68.7299 13.5558 68.7679 12.5451 68.5272 11.6763C68.2865 10.8112 67.7862 10.1452 67.0325 9.68154M78.7555 12.2208L79.5978 9.22721C79.3128 9.08406 78.9392 9.00937 78.4705 9.00937C77.7168 9.00937 76.9948 9.19235 76.2982 9.56329C75.699 9.87821 75.1898 10.3226 74.7592 10.879L75.1962 9.26704L74.2417 9.27077H71.8984L68.8774 20.2682H72.2106L73.7781 14.5193C74.0061 13.6834 74.4165 13.0256 75.0087 12.5588C75.5977 12.0901 76.3324 11.8555 77.219 11.8555C77.7637 11.8555 78.2704 11.9781 78.7517 12.2227M88.03 14.7807C87.745 15.8076 87.3144 16.5918 86.7254 17.1333C86.1364 17.6772 85.427 17.9486 84.6037 17.9486C83.7804 17.9486 83.2167 17.6747 82.919 17.1271C82.615 16.5762 82.6087 15.7827 82.8937 14.7396C83.1787 13.6971 83.6157 12.8974 84.2174 12.3435C84.819 11.7852 85.5284 11.5064 86.3517 11.5064C87.1624 11.5064 87.707 11.7926 87.9984 12.3715C88.2897 12.9503 88.296 13.7531 88.0161 14.7801M90.3467 9.71391C89.7292 9.22845 88.9408 8.98572 87.9844 8.98572C87.1465 8.98572 86.3479 9.17244 85.5904 9.5496C84.8336 9.92614 84.2193 10.4396 83.7474 11.0894L83.7588 11.0147L84.3181 9.26579H81.0627L80.2331 12.3092L80.2077 12.415L76.7877 24.9522H80.1254L81.8481 18.6413C82.0191 19.2027 82.3674 19.6433 82.8994 19.962C83.4314 20.2794 84.0882 20.4369 84.8691 20.4369C85.8381 20.4369 86.7627 20.2066 87.6399 19.746C88.5202 19.2842 89.2802 18.6195 89.9262 17.7606C90.5722 16.9018 91.0517 15.9059 91.3576 14.7794C91.6679 13.6511 91.7312 12.6447 91.5539 11.764C91.3734 10.8821 90.9737 10.1994 90.3569 9.7164M101.418 14.7359C101.133 15.7752 100.696 16.5719 100.107 17.1196C99.518 17.671 98.8087 17.9455 97.9854 17.9455C97.143 17.9455 96.573 17.6779 96.2754 17.1364C95.9714 16.5949 95.965 15.8107 96.2437 14.7838C96.5224 13.7569 96.967 12.954 97.5813 12.3752C98.1956 11.7964 98.9145 11.5076 99.7391 11.5076C100.562 11.5076 101.12 11.7877 101.411 12.3416C101.702 12.8974 101.704 13.6959 101.421 14.7377L101.418 14.7359ZM102.906 9.26828L102.48 10.8305C102.296 10.2672 101.942 9.81909 101.416 9.48612C100.884 9.15377 100.232 8.98821 99.4528 8.98821C98.4965 8.98821 97.5731 9.23094 96.6915 9.7164C95.8111 10.2019 95.0385 10.8827 94.3798 11.764C93.7211 12.6453 93.2398 13.6498 92.9295 14.7763C92.6223 15.9072 92.5621 16.8986 92.7458 17.7613C92.9314 18.6201 93.331 19.2836 93.9491 19.7466C94.566 20.2072 95.3615 20.44 96.3305 20.44C97.1095 20.44 97.8536 20.2806 98.5598 19.9607C99.2483 19.6534 99.8606 19.2026 100.354 18.6394L99.9107 20.2688H103.198L106.198 9.2714H102.911L102.906 9.26828ZM119.998 9.27202L120 9.26891H117.98C117.915 9.26891 117.858 9.27202 117.799 9.27326H116.751L116.213 10.0077L116.08 10.1819L116.023 10.2691L111.764 16.0995L110.883 9.27202H107.395L109.162 19.6471L105.26 24.956H108.737L109.681 23.6409C109.708 23.6023 109.732 23.5699 109.763 23.5288L110.865 21.9916L110.897 21.948L115.833 15.0707L119.994 9.2826L120 9.27886H119.998V9.27202Z" fill="#072654"/>
</g>
<defs>
<clipPath id="clip0_6284_24205">
<rect width="120" height="25" fill="white"/>
</clipPath>
</defs>
</svg>
