<svg width="20" height="20" viewBox="0 0 20 20" fill="none" xmlns="http://www.w3.org/2000/svg">
<path d="M5.83203 9.99967C5.83203 7.69849 7.69751 5.83301 9.9987 5.83301C12.2999 5.83301 14.1654 7.69849 14.1654 9.99967C14.1654 12.3009 12.2999 14.1663 9.9987 14.1663C7.69751 14.1663 5.83203 12.3009 5.83203 9.99967Z" fill="black"/>
<path fill-rule="evenodd" clip-rule="evenodd" d="M10.0013 2.50033C5.85917 2.50033 2.5013 5.85819 2.5013 10.0003C2.5013 14.1425 5.85917 17.5003 10.0013 17.5003C14.1435 17.5003 17.5013 14.1425 17.5013 10.0003C17.5013 5.85819 14.1435 2.50033 10.0013 2.50033ZM1.66797 10.0003C1.66797 5.39795 5.39893 1.66699 10.0013 1.66699C14.6036 1.66699 18.3346 5.39795 18.3346 10.0003C18.3346 14.6027 14.6036 18.3337 10.0013 18.3337C5.39893 18.3337 1.66797 14.6027 1.66797 10.0003Z" fill="black"/>
</svg>
